<svg xmlns="http://www.w3.org/2000/svg" xmlns:xlink="http://www.w3.org/1999/xlink" width="150" zoomAndPan="magnify" viewBox="0 0 112.5 37.5" height="50" preserveAspectRatio="xMidYMid meet" version="1.0"><defs><g/><clipPath id="19e0346bec"><path d="M 37.046875 9 L 100 9 L 100 27 L 37.046875 27 Z M 37.046875 9 " clip-rule="nonzero"/></clipPath><clipPath id="2dc2b95e49"><path d="M 48 20 L 110.316406 20 L 110.316406 29 L 48 29 Z M 48 20 " clip-rule="nonzero"/></clipPath></defs><g fill="#ffffff" fill-opacity="1"><g transform="translate(5.813857, 11.190788)"><g><path d="M 0.28125 -5.765625 C 0.28125 -6.378906 0.425781 -6.847656 0.71875 -7.171875 C 1.007812 -7.503906 1.445312 -7.671875 2.03125 -7.671875 C 2.625 -7.671875 3.066406 -7.503906 3.359375 -7.171875 C 3.648438 -6.847656 3.796875 -6.378906 3.796875 -5.765625 L 3.796875 -5.46875 L 2.671875 -5.46875 L 2.671875 -5.84375 C 2.671875 -6.113281 2.617188 -6.304688 2.515625 -6.421875 C 2.410156 -6.535156 2.265625 -6.59375 2.078125 -6.59375 C 1.890625 -6.59375 1.738281 -6.535156 1.625 -6.421875 C 1.519531 -6.304688 1.46875 -6.113281 1.46875 -5.84375 C 1.46875 -5.582031 1.523438 -5.351562 1.640625 -5.15625 C 1.765625 -4.957031 1.910156 -4.769531 2.078125 -4.59375 C 2.253906 -4.414062 2.441406 -4.238281 2.640625 -4.0625 C 2.835938 -3.882812 3.019531 -3.691406 3.1875 -3.484375 C 3.363281 -3.273438 3.507812 -3.035156 3.625 -2.765625 C 3.75 -2.492188 3.8125 -2.179688 3.8125 -1.828125 C 3.8125 -1.210938 3.660156 -0.738281 3.359375 -0.40625 C 3.054688 -0.0703125 2.613281 0.09375 2.03125 0.09375 C 1.445312 0.09375 1.003906 -0.0703125 0.703125 -0.40625 C 0.398438 -0.738281 0.25 -1.210938 0.25 -1.828125 L 0.25 -2.34375 L 1.375 -2.34375 L 1.375 -1.75 C 1.375 -1.46875 1.429688 -1.273438 1.546875 -1.171875 C 1.660156 -1.066406 1.8125 -1.015625 2 -1.015625 C 2.1875 -1.015625 2.332031 -1.066406 2.4375 -1.171875 C 2.550781 -1.273438 2.609375 -1.46875 2.609375 -1.75 C 2.609375 -2.007812 2.550781 -2.238281 2.4375 -2.4375 C 2.320312 -2.632812 2.175781 -2.820312 2 -3 C 1.832031 -3.175781 1.648438 -3.351562 1.453125 -3.53125 C 1.253906 -3.707031 1.066406 -3.898438 0.890625 -4.109375 C 0.710938 -4.316406 0.566406 -4.554688 0.453125 -4.828125 C 0.335938 -5.097656 0.28125 -5.410156 0.28125 -5.765625 Z M 0.28125 -5.765625 "/></g></g></g><g fill="#ffffff" fill-opacity="1"><g transform="translate(10.055398, 11.190788)"><g><path d="M 1.578125 -7.59375 L 1.578125 -1.734375 C 1.578125 -1.460938 1.628906 -1.269531 1.734375 -1.15625 C 1.847656 -1.050781 2 -1 2.1875 -1 C 2.375 -1 2.523438 -1.050781 2.640625 -1.15625 C 2.753906 -1.269531 2.8125 -1.460938 2.8125 -1.734375 L 2.8125 -7.59375 L 3.9375 -7.59375 L 3.9375 -1.8125 C 3.9375 -1.195312 3.785156 -0.722656 3.484375 -0.390625 C 3.179688 -0.0664062 2.738281 0.09375 2.15625 0.09375 C 1.570312 0.09375 1.128906 -0.0664062 0.828125 -0.390625 C 0.523438 -0.722656 0.375 -1.195312 0.375 -1.8125 L 0.375 -7.59375 Z M 1.578125 -7.59375 "/></g></g></g><g fill="#ffffff" fill-opacity="1"><g transform="translate(14.557278, 11.190788)"><g><path d="M 2.1875 -7.59375 C 2.789062 -7.59375 3.238281 -7.429688 3.53125 -7.109375 C 3.820312 -6.796875 3.96875 -6.332031 3.96875 -5.71875 L 3.96875 -4.734375 C 3.96875 -4.117188 3.820312 -3.648438 3.53125 -3.328125 C 3.238281 -3.015625 2.789062 -2.859375 2.1875 -2.859375 L 1.625 -2.859375 L 1.625 0 L 0.4375 0 L 0.4375 -7.59375 Z M 1.625 -6.5 L 1.625 -3.9375 L 2.1875 -3.9375 C 2.375 -3.9375 2.519531 -3.984375 2.625 -4.078125 C 2.726562 -4.179688 2.78125 -4.375 2.78125 -4.65625 L 2.78125 -5.796875 C 2.78125 -6.066406 2.726562 -6.25 2.625 -6.34375 C 2.519531 -6.445312 2.375 -6.5 2.1875 -6.5 Z M 1.625 -6.5 "/></g></g></g><g fill="#ffffff" fill-opacity="1"><g transform="translate(18.831356, 11.190788)"><g><path d="M 1.625 -4.390625 L 3.265625 -4.390625 L 3.265625 -3.3125 L 1.625 -3.3125 L 1.625 -1.078125 L 3.6875 -1.078125 L 3.6875 0 L 0.4375 0 L 0.4375 -7.59375 L 3.6875 -7.59375 L 3.6875 -6.5 L 1.625 -6.5 Z M 1.625 -4.390625 "/></g></g></g><g fill="#ffffff" fill-opacity="1"><g transform="translate(23.007814, 11.190788)"><g><path d="M 2.921875 0 C 2.910156 -0.0507812 2.894531 -0.0976562 2.875 -0.140625 C 2.863281 -0.179688 2.851562 -0.234375 2.84375 -0.296875 C 2.832031 -0.367188 2.820312 -0.453125 2.8125 -0.546875 C 2.8125 -0.648438 2.8125 -0.78125 2.8125 -0.9375 L 2.8125 -2.125 C 2.8125 -2.476562 2.75 -2.726562 2.625 -2.875 C 2.507812 -3.019531 2.3125 -3.09375 2.03125 -3.09375 L 1.625 -3.09375 L 1.625 0 L 0.4375 0 L 0.4375 -7.59375 L 2.234375 -7.59375 C 2.859375 -7.59375 3.304688 -7.445312 3.578125 -7.15625 C 3.859375 -6.863281 4 -6.425781 4 -5.84375 L 4 -5.25 C 4 -4.46875 3.738281 -3.953125 3.21875 -3.703125 C 3.519531 -3.585938 3.726562 -3.390625 3.84375 -3.109375 C 3.957031 -2.828125 4.015625 -2.488281 4.015625 -2.09375 L 4.015625 -0.921875 C 4.015625 -0.734375 4.019531 -0.566406 4.03125 -0.421875 C 4.050781 -0.285156 4.085938 -0.144531 4.140625 0 Z M 1.625 -6.5 L 1.625 -4.171875 L 2.09375 -4.171875 C 2.3125 -4.171875 2.484375 -4.226562 2.609375 -4.34375 C 2.742188 -4.457031 2.8125 -4.671875 2.8125 -4.984375 L 2.8125 -5.71875 C 2.8125 -6 2.757812 -6.195312 2.65625 -6.3125 C 2.5625 -6.4375 2.410156 -6.5 2.203125 -6.5 Z M 1.625 -6.5 "/></g></g></g><g fill="#ffffff" fill-opacity="1"><g transform="translate(27.555221, 11.190788)"><g/></g></g><g fill="#ffffff" fill-opacity="1"><g transform="translate(9.919274, 22.292762)"><g><path d="M 3.890625 -2.828125 L 3.890625 -1.828125 C 3.890625 -1.210938 3.738281 -0.738281 3.4375 -0.40625 C 3.144531 -0.0703125 2.703125 0.09375 2.109375 0.09375 C 1.523438 0.09375 1.082031 -0.0703125 0.78125 -0.40625 C 0.488281 -0.738281 0.34375 -1.210938 0.34375 -1.828125 L 0.34375 -5.765625 C 0.34375 -6.378906 0.488281 -6.847656 0.78125 -7.171875 C 1.082031 -7.503906 1.523438 -7.671875 2.109375 -7.671875 C 2.703125 -7.671875 3.144531 -7.503906 3.4375 -7.171875 C 3.738281 -6.847656 3.890625 -6.378906 3.890625 -5.765625 L 3.890625 -5.03125 L 2.765625 -5.03125 L 2.765625 -5.84375 C 2.765625 -6.113281 2.707031 -6.304688 2.59375 -6.421875 C 2.476562 -6.535156 2.328125 -6.59375 2.140625 -6.59375 C 1.953125 -6.59375 1.800781 -6.535156 1.6875 -6.421875 C 1.582031 -6.304688 1.53125 -6.113281 1.53125 -5.84375 L 1.53125 -1.75 C 1.53125 -1.46875 1.582031 -1.273438 1.6875 -1.171875 C 1.800781 -1.066406 1.953125 -1.015625 2.140625 -1.015625 C 2.328125 -1.015625 2.476562 -1.066406 2.59375 -1.171875 C 2.707031 -1.273438 2.765625 -1.46875 2.765625 -1.75 L 2.765625 -2.828125 Z M 3.890625 -2.828125 "/></g></g></g><g fill="#ffffff" fill-opacity="1"><g transform="translate(14.290985, 22.292762)"><g><path d="M 4.296875 0 L 3.09375 0 L 2.890625 -1.375 L 1.421875 -1.375 L 1.21875 0 L 0.125 0 L 1.328125 -7.59375 L 3.078125 -7.59375 Z M 1.578125 -2.40625 L 2.71875 -2.40625 L 2.140625 -6.25 Z M 1.578125 -2.40625 "/></g></g></g><g fill="#ffffff" fill-opacity="1"><g transform="translate(18.890497, 22.292762)"><g><path d="M 2.921875 0 C 2.910156 -0.0507812 2.894531 -0.0976562 2.875 -0.140625 C 2.863281 -0.179688 2.851562 -0.234375 2.84375 -0.296875 C 2.832031 -0.367188 2.820312 -0.453125 2.8125 -0.546875 C 2.8125 -0.648438 2.8125 -0.78125 2.8125 -0.9375 L 2.8125 -2.125 C 2.8125 -2.476562 2.75 -2.726562 2.625 -2.875 C 2.507812 -3.019531 2.3125 -3.09375 2.03125 -3.09375 L 1.625 -3.09375 L 1.625 0 L 0.4375 0 L 0.4375 -7.59375 L 2.234375 -7.59375 C 2.859375 -7.59375 3.304688 -7.445312 3.578125 -7.15625 C 3.859375 -6.863281 4 -6.425781 4 -5.84375 L 4 -5.25 C 4 -4.46875 3.738281 -3.953125 3.21875 -3.703125 C 3.519531 -3.585938 3.726562 -3.390625 3.84375 -3.109375 C 3.957031 -2.828125 4.015625 -2.488281 4.015625 -2.09375 L 4.015625 -0.921875 C 4.015625 -0.734375 4.019531 -0.566406 4.03125 -0.421875 C 4.050781 -0.285156 4.085938 -0.144531 4.140625 0 Z M 1.625 -6.5 L 1.625 -4.171875 L 2.09375 -4.171875 C 2.3125 -4.171875 2.484375 -4.226562 2.609375 -4.34375 C 2.742188 -4.457031 2.8125 -4.671875 2.8125 -4.984375 L 2.8125 -5.71875 C 2.8125 -6 2.757812 -6.195312 2.65625 -6.3125 C 2.5625 -6.4375 2.410156 -6.5 2.203125 -6.5 Z M 1.625 -6.5 "/></g></g></g><g fill="#ffffff" fill-opacity="1"><g transform="translate(23.438239, 22.292762)"><g/></g></g><g fill="#ffffff" fill-opacity="1"><g transform="translate(4.518626, 33.394735)"><g><path d="M 0.4375 -7.59375 L 2.328125 -7.59375 C 2.921875 -7.59375 3.363281 -7.429688 3.65625 -7.109375 C 3.945312 -6.796875 4.09375 -6.332031 4.09375 -5.71875 L 4.09375 -1.875 C 4.09375 -1.257812 3.945312 -0.789062 3.65625 -0.46875 C 3.363281 -0.15625 2.921875 0 2.328125 0 L 0.4375 0 Z M 1.625 -6.5 L 1.625 -1.078125 L 2.296875 -1.078125 C 2.484375 -1.078125 2.628906 -1.128906 2.734375 -1.234375 C 2.847656 -1.347656 2.90625 -1.546875 2.90625 -1.828125 L 2.90625 -5.765625 C 2.90625 -6.046875 2.847656 -6.238281 2.734375 -6.34375 C 2.628906 -6.445312 2.484375 -6.5 2.296875 -6.5 Z M 1.625 -6.5 "/></g></g></g><g fill="#ffffff" fill-opacity="1"><g transform="translate(9.12898, 33.394735)"><g><path d="M 1.625 -4.390625 L 3.265625 -4.390625 L 3.265625 -3.3125 L 1.625 -3.3125 L 1.625 -1.078125 L 3.6875 -1.078125 L 3.6875 0 L 0.4375 0 L 0.4375 -7.59375 L 3.6875 -7.59375 L 3.6875 -6.5 L 1.625 -6.5 Z M 1.625 -4.390625 "/></g></g></g><g fill="#ffffff" fill-opacity="1"><g transform="translate(13.305438, 33.394735)"><g><path d="M 0.4375 -7.59375 L 1.625 -7.59375 L 1.625 -1.078125 L 3.59375 -1.078125 L 3.59375 0 L 0.4375 0 Z M 0.4375 -7.59375 "/></g></g></g><g fill="#ffffff" fill-opacity="1"><g transform="translate(17.189009, 33.394735)"><g><path d="M 1.578125 -7.59375 L 1.578125 -1.734375 C 1.578125 -1.460938 1.628906 -1.269531 1.734375 -1.15625 C 1.847656 -1.050781 2 -1 2.1875 -1 C 2.375 -1 2.523438 -1.050781 2.640625 -1.15625 C 2.753906 -1.269531 2.8125 -1.460938 2.8125 -1.734375 L 2.8125 -7.59375 L 3.9375 -7.59375 L 3.9375 -1.8125 C 3.9375 -1.195312 3.785156 -0.722656 3.484375 -0.390625 C 3.179688 -0.0664062 2.738281 0.09375 2.15625 0.09375 C 1.570312 0.09375 1.128906 -0.0664062 0.828125 -0.390625 C 0.523438 -0.722656 0.375 -1.195312 0.375 -1.8125 L 0.375 -7.59375 Z M 1.578125 -7.59375 "/></g></g></g><g fill="#ffffff" fill-opacity="1"><g transform="translate(21.690889, 33.394735)"><g><path d="M 4.40625 -7.59375 L 3.171875 -3.90625 L 4.5 0 L 3.25 0 L 2.265625 -3 L 1.28125 0 L 0.15625 0 L 1.5 -3.90625 L 0.25 -7.59375 L 1.484375 -7.59375 L 2.390625 -4.796875 L 3.3125 -7.59375 Z M 4.40625 -7.59375 "/></g></g></g><g fill="#ffffff" fill-opacity="1"><g transform="translate(26.539898, 33.394735)"><g><path d="M 1.625 -4.390625 L 3.265625 -4.390625 L 3.265625 -3.3125 L 1.625 -3.3125 L 1.625 -1.078125 L 3.6875 -1.078125 L 3.6875 0 L 0.4375 0 L 0.4375 -7.59375 L 3.6875 -7.59375 L 3.6875 -6.5 L 1.625 -6.5 Z M 1.625 -4.390625 "/></g></g></g><path stroke-linecap="butt" transform="matrix(0.00000000129177, -0.740132, 0.740132, 0.00000000129177, 32.841051, 34.534022)" fill="none" stroke-linejoin="miter" d="M -0.00153218 0.499758 L 43.614025 0.499758 " stroke="#ffffff" stroke-width="1" stroke-opacity="1" stroke-miterlimit="4"/><path fill="#ffffff" d="M 74.683594 7.25 C 63.765625 7.195312 54.371094 8.929688 53.015625 9.101562 C 50.851562 9.375 50.136719 10.867188 50.136719 10.867188 L 45.941406 20.070312 C 46.683594 19.980469 47.640625 19.867188 48.773438 19.726562 C 49.027344 2.261719 93.101562 9.007812 94.578125 9.988281 C 88.335938 7.953125 81.234375 7.277344 74.683594 7.25 Z M 74.683594 7.25 " fill-opacity="1" fill-rule="nonzero"/><g clip-path="url(#19e0346bec)"><path fill="#ffffff" d="M 64.890625 9.679688 C 64.890625 9.679688 76.328125 7.71875 94.421875 10.960938 C 94.25 10.789062 97.921875 13.863281 99.882812 20.179688 C 99.800781 20.09375 51.148438 15.910156 37.066406 26.921875 C 37.324219 26.582031 43.125 20.519531 60.539062 18.984375 C 77.949219 17.449219 98.691406 21.460938 96.214844 15.570312 C 93.738281 9.679688 80.253906 9.679688 64.890625 9.679688 Z M 64.890625 9.679688 " fill-opacity="1" fill-rule="nonzero"/></g><path fill="#ffffff" d="M 46.199219 19.988281 L 44.726562 21.351562 C 44.726562 21.351562 43.746094 20.09375 40.394531 20.222656 C 37.046875 20.351562 38.878906 16.636719 40.863281 16.59375 C 42.847656 16.550781 44.769531 16.210938 44.621094 17.234375 C 44.472656 18.257812 44.449219 19.601562 44.152344 19.730469 C 43.851562 19.859375 44.171875 16.808594 41.695312 17.277344 C 39.222656 17.746094 39.710938 18.75 40.332031 18.984375 C 40.949219 19.21875 41.847656 18.621094 42.59375 19.496094 C 43.339844 20.371094 45.539062 20.839844 46.199219 19.988281 Z M 46.199219 19.988281 " fill-opacity="1" fill-rule="nonzero"/><path fill="#ffffff" d="M 99.730469 20.136719 L 101.203125 21.503906 C 101.203125 21.503906 102.183594 20.242188 105.535156 20.371094 C 108.886719 20.5 107.050781 16.789062 105.066406 16.746094 C 103.082031 16.703125 101.160156 16.359375 101.3125 17.386719 C 101.460938 18.410156 101.480469 19.753906 101.78125 19.882812 C 102.078125 20.007812 101.757812 16.957031 104.234375 17.425781 C 106.710938 17.898438 106.21875 18.898438 105.597656 19.132812 C 104.980469 19.367188 104.085938 18.773438 103.335938 19.648438 C 102.589844 20.519531 100.394531 20.992188 99.730469 20.136719 Z M 99.730469 20.136719 " fill-opacity="1" fill-rule="nonzero"/><g clip-path="url(#2dc2b95e49)"><path fill="#ffffff" d="M 75.710938 20.351562 C 67.421875 20.378906 58.351562 21.285156 48.34375 24.320312 L 48.359375 24.316406 C 63.75 20.628906 81.539062 20.707031 94.308594 21.628906 C 94.265625 21.632812 94.246094 21.632812 94.203125 21.632812 C 92.492188 21.722656 91.453125 21.972656 89.175781 22.175781 C 86.898438 22.378906 84.609375 22.640625 82.847656 22.957031 C 81.96875 23.117188 81.21875 23.289062 80.664062 23.476562 C 80.386719 23.574219 80.160156 23.671875 79.984375 23.777344 C 79.808594 23.886719 79.679688 24 79.628906 24.152344 C 79.574219 24.308594 79.644531 24.472656 79.773438 24.59375 C 95.960938 34.53125 107 15.679688 109.660156 28.46875 C 109.785156 28.457031 109.910156 28.449219 110.027344 28.449219 C 109.484375 24.609375 107.507812 23.664062 106.734375 22.375 C 106.492188 21.972656 106.171875 21.785156 105.84375 21.753906 C 105.515625 21.722656 105.191406 21.84375 104.90625 22 C 102.785156 23.585938 100.207031 24.582031 97.738281 25.046875 C 95.171875 25.511719 92.265625 25.699219 89.550781 25.695312 C 76.496094 23.34375 91.863281 22.300781 98.414062 21.664062 C 91.515625 21.175781 84 20.320312 75.710938 20.351562 Z M 75.710938 20.351562 " fill-opacity="1" fill-rule="nonzero"/></g></svg>