<svg xmlns="http://www.w3.org/2000/svg" xmlns:xlink="http://www.w3.org/1999/xlink" width="150" zoomAndPan="magnify" viewBox="0 0 112.5 37.5" height="50" preserveAspectRatio="xMidYMid meet" version="1.0"><defs><g/><clipPath id="9f91f259b2"><path d="M 32.6875 8 L 99 8 L 99 28 L 32.6875 28 Z M 32.6875 8 " clip-rule="nonzero"/></clipPath></defs><g fill="#ffffff" fill-opacity="1"><g transform="translate(2.328861, 10.828384)"><g><path d="M 0.3125 -6.25 C 0.3125 -6.90625 0.46875 -7.410156 0.78125 -7.765625 C 1.09375 -8.128906 1.566406 -8.3125 2.203125 -8.3125 C 2.835938 -8.3125 3.3125 -8.128906 3.625 -7.765625 C 3.945312 -7.410156 4.109375 -6.90625 4.109375 -6.25 L 4.109375 -5.921875 L 2.890625 -5.921875 L 2.890625 -6.328125 C 2.890625 -6.617188 2.832031 -6.828125 2.71875 -6.953125 C 2.601562 -7.078125 2.441406 -7.140625 2.234375 -7.140625 C 2.035156 -7.140625 1.878906 -7.078125 1.765625 -6.953125 C 1.648438 -6.828125 1.59375 -6.617188 1.59375 -6.328125 C 1.59375 -6.046875 1.65625 -5.796875 1.78125 -5.578125 C 1.90625 -5.359375 2.0625 -5.15625 2.25 -4.96875 C 2.4375 -4.78125 2.640625 -4.585938 2.859375 -4.390625 C 3.078125 -4.203125 3.28125 -3.992188 3.46875 -3.765625 C 3.65625 -3.535156 3.8125 -3.273438 3.9375 -2.984375 C 4.0625 -2.703125 4.125 -2.363281 4.125 -1.96875 C 4.125 -1.300781 3.957031 -0.789062 3.625 -0.4375 C 3.300781 -0.0820312 2.820312 0.09375 2.1875 0.09375 C 1.5625 0.09375 1.082031 -0.0820312 0.75 -0.4375 C 0.425781 -0.789062 0.265625 -1.300781 0.265625 -1.96875 L 0.265625 -2.53125 L 1.484375 -2.53125 L 1.484375 -1.890625 C 1.484375 -1.585938 1.546875 -1.378906 1.671875 -1.265625 C 1.796875 -1.148438 1.957031 -1.09375 2.15625 -1.09375 C 2.363281 -1.09375 2.523438 -1.148438 2.640625 -1.265625 C 2.765625 -1.378906 2.828125 -1.585938 2.828125 -1.890625 C 2.828125 -2.171875 2.765625 -2.414062 2.640625 -2.625 C 2.515625 -2.84375 2.359375 -3.046875 2.171875 -3.234375 C 1.984375 -3.429688 1.78125 -3.625 1.5625 -3.8125 C 1.351562 -4.007812 1.15625 -4.21875 0.96875 -4.4375 C 0.78125 -4.664062 0.625 -4.925781 0.5 -5.21875 C 0.375 -5.507812 0.3125 -5.851562 0.3125 -6.25 Z M 0.3125 -6.25 "/></g></g></g><g fill="#ffffff" fill-opacity="1"><g transform="translate(6.717955, 10.828384)"><g><path d="M 1.703125 -8.21875 L 1.703125 -1.875 C 1.703125 -1.582031 1.757812 -1.375 1.875 -1.25 C 2 -1.132812 2.164062 -1.078125 2.375 -1.078125 C 2.570312 -1.078125 2.734375 -1.132812 2.859375 -1.25 C 2.984375 -1.375 3.046875 -1.582031 3.046875 -1.875 L 3.046875 -8.21875 L 4.265625 -8.21875 L 4.265625 -1.953125 C 4.265625 -1.296875 4.097656 -0.785156 3.765625 -0.421875 C 3.441406 -0.0664062 2.960938 0.109375 2.328125 0.109375 C 1.703125 0.109375 1.222656 -0.0664062 0.890625 -0.421875 C 0.566406 -0.785156 0.40625 -1.296875 0.40625 -1.953125 L 0.40625 -8.21875 Z M 1.703125 -8.21875 "/></g></g></g><g fill="#ffffff" fill-opacity="1"><g transform="translate(11.388694, 10.828384)"><g><path d="M 2.375 -8.21875 C 3.019531 -8.21875 3.5 -8.046875 3.8125 -7.703125 C 4.132812 -7.359375 4.296875 -6.851562 4.296875 -6.1875 L 4.296875 -5.109375 C 4.296875 -4.453125 4.132812 -3.953125 3.8125 -3.609375 C 3.5 -3.265625 3.019531 -3.09375 2.375 -3.09375 L 1.765625 -3.09375 L 1.765625 0 L 0.46875 0 L 0.46875 -8.21875 Z M 1.765625 -7.046875 L 1.765625 -4.265625 L 2.375 -4.265625 C 2.570312 -4.265625 2.722656 -4.316406 2.828125 -4.421875 C 2.941406 -4.535156 3 -4.738281 3 -5.03125 L 3 -6.265625 C 3 -6.566406 2.941406 -6.769531 2.828125 -6.875 C 2.722656 -6.988281 2.570312 -7.046875 2.375 -7.046875 Z M 1.765625 -7.046875 "/></g></g></g><g fill="#ffffff" fill-opacity="1"><g transform="translate(15.81299, 10.828384)"><g><path d="M 1.765625 -4.75 L 3.53125 -4.75 L 3.53125 -3.578125 L 1.765625 -3.578125 L 1.765625 -1.171875 L 3.984375 -1.171875 L 3.984375 0 L 0.46875 0 L 0.46875 -8.21875 L 3.984375 -8.21875 L 3.984375 -7.046875 L 1.765625 -7.046875 Z M 1.765625 -4.75 "/></g></g></g><g fill="#ffffff" fill-opacity="1"><g transform="translate(20.131665, 10.828384)"><g><path d="M 3.171875 0 C 3.148438 -0.0507812 3.128906 -0.0976562 3.109375 -0.140625 C 3.097656 -0.191406 3.085938 -0.253906 3.078125 -0.328125 C 3.066406 -0.398438 3.054688 -0.488281 3.046875 -0.59375 C 3.046875 -0.707031 3.046875 -0.847656 3.046875 -1.015625 L 3.046875 -2.296875 C 3.046875 -2.679688 2.976562 -2.953125 2.84375 -3.109375 C 2.71875 -3.265625 2.503906 -3.34375 2.203125 -3.34375 L 1.765625 -3.34375 L 1.765625 0 L 0.46875 0 L 0.46875 -8.21875 L 2.421875 -8.21875 C 3.085938 -8.21875 3.570312 -8.0625 3.875 -7.75 C 4.175781 -7.4375 4.328125 -6.960938 4.328125 -6.328125 L 4.328125 -5.671875 C 4.328125 -4.828125 4.046875 -4.273438 3.484375 -4.015625 C 3.816406 -3.878906 4.039062 -3.660156 4.15625 -3.359375 C 4.28125 -3.054688 4.34375 -2.691406 4.34375 -2.265625 L 4.34375 -1 C 4.34375 -0.789062 4.347656 -0.609375 4.359375 -0.453125 C 4.378906 -0.304688 4.421875 -0.15625 4.484375 0 Z M 1.765625 -7.046875 L 1.765625 -4.515625 L 2.265625 -4.515625 C 2.503906 -4.515625 2.691406 -4.578125 2.828125 -4.703125 C 2.972656 -4.828125 3.046875 -5.054688 3.046875 -5.390625 L 3.046875 -6.203125 C 3.046875 -6.492188 2.988281 -6.707031 2.875 -6.84375 C 2.769531 -6.976562 2.601562 -7.046875 2.375 -7.046875 Z M 1.765625 -7.046875 "/></g></g></g><g fill="#ffffff" fill-opacity="1"><g transform="translate(24.852364, 10.828384)"><g/></g></g><g fill="#ffffff" fill-opacity="1"><g transform="translate(6.576848, 22.563832)"><g><path d="M 4.21875 -3.0625 L 4.21875 -1.96875 C 4.21875 -1.300781 4.050781 -0.789062 3.71875 -0.4375 C 3.394531 -0.0820312 2.914062 0.09375 2.28125 0.09375 C 1.65625 0.09375 1.175781 -0.0820312 0.84375 -0.4375 C 0.519531 -0.789062 0.359375 -1.300781 0.359375 -1.96875 L 0.359375 -6.25 C 0.359375 -6.90625 0.519531 -7.410156 0.84375 -7.765625 C 1.175781 -8.128906 1.65625 -8.3125 2.28125 -8.3125 C 2.914062 -8.3125 3.394531 -8.128906 3.71875 -7.765625 C 4.050781 -7.410156 4.21875 -6.90625 4.21875 -6.25 L 4.21875 -5.4375 L 3 -5.4375 L 3 -6.328125 C 3 -6.617188 2.9375 -6.828125 2.8125 -6.953125 C 2.6875 -7.078125 2.523438 -7.140625 2.328125 -7.140625 C 2.117188 -7.140625 1.953125 -7.078125 1.828125 -6.953125 C 1.710938 -6.828125 1.65625 -6.617188 1.65625 -6.328125 L 1.65625 -1.890625 C 1.65625 -1.585938 1.710938 -1.378906 1.828125 -1.265625 C 1.953125 -1.148438 2.117188 -1.09375 2.328125 -1.09375 C 2.523438 -1.09375 2.6875 -1.148438 2.8125 -1.265625 C 2.9375 -1.378906 3 -1.585938 3 -1.890625 L 3 -3.0625 Z M 4.21875 -3.0625 "/></g></g></g><g fill="#ffffff" fill-opacity="1"><g transform="translate(11.106765, 22.563832)"><g><path d="M 4.640625 0 L 3.34375 0 L 3.125 -1.484375 L 1.53125 -1.484375 L 1.3125 0 L 0.125 0 L 1.4375 -8.21875 L 3.328125 -8.21875 Z M 1.703125 -2.609375 L 2.953125 -2.609375 L 2.328125 -6.765625 Z M 1.703125 -2.609375 "/></g></g></g><g fill="#ffffff" fill-opacity="1"><g transform="translate(15.883125, 22.563832)"><g><path d="M 3.171875 0 C 3.148438 -0.0507812 3.128906 -0.0976562 3.109375 -0.140625 C 3.097656 -0.191406 3.085938 -0.253906 3.078125 -0.328125 C 3.066406 -0.398438 3.054688 -0.488281 3.046875 -0.59375 C 3.046875 -0.707031 3.046875 -0.847656 3.046875 -1.015625 L 3.046875 -2.296875 C 3.046875 -2.679688 2.976562 -2.953125 2.84375 -3.109375 C 2.71875 -3.265625 2.503906 -3.34375 2.203125 -3.34375 L 1.765625 -3.34375 L 1.765625 0 L 0.46875 0 L 0.46875 -8.21875 L 2.421875 -8.21875 C 3.085938 -8.21875 3.570312 -8.0625 3.875 -7.75 C 4.175781 -7.4375 4.328125 -6.960938 4.328125 -6.328125 L 4.328125 -5.671875 C 4.328125 -4.828125 4.046875 -4.273438 3.484375 -4.015625 C 3.816406 -3.878906 4.039062 -3.660156 4.15625 -3.359375 C 4.28125 -3.054688 4.34375 -2.691406 4.34375 -2.265625 L 4.34375 -1 C 4.34375 -0.789062 4.347656 -0.609375 4.359375 -0.453125 C 4.378906 -0.304688 4.421875 -0.15625 4.484375 0 Z M 1.765625 -7.046875 L 1.765625 -4.515625 L 2.265625 -4.515625 C 2.503906 -4.515625 2.691406 -4.578125 2.828125 -4.703125 C 2.972656 -4.828125 3.046875 -5.054688 3.046875 -5.390625 L 3.046875 -6.203125 C 3.046875 -6.492188 2.988281 -6.707031 2.875 -6.84375 C 2.769531 -6.976562 2.601562 -7.046875 2.375 -7.046875 Z M 1.765625 -7.046875 "/></g></g></g><g fill="#ffffff" fill-opacity="1"><g transform="translate(20.604376, 22.563832)"><g/></g></g><g fill="#ffffff" fill-opacity="1"><g transform="translate(0.923052, 34.299281)"><g><path d="M 0.46875 -8.21875 L 2.515625 -8.21875 C 3.160156 -8.21875 3.640625 -8.046875 3.953125 -7.703125 C 4.273438 -7.359375 4.4375 -6.851562 4.4375 -6.1875 L 4.4375 -2.03125 C 4.4375 -1.363281 4.273438 -0.859375 3.953125 -0.515625 C 3.640625 -0.171875 3.160156 0 2.515625 0 L 0.46875 0 Z M 1.765625 -7.046875 L 1.765625 -1.171875 L 2.484375 -1.171875 C 2.691406 -1.171875 2.851562 -1.226562 2.96875 -1.34375 C 3.082031 -1.46875 3.140625 -1.675781 3.140625 -1.96875 L 3.140625 -6.25 C 3.140625 -6.539062 3.082031 -6.742188 2.96875 -6.859375 C 2.851562 -6.984375 2.691406 -7.046875 2.484375 -7.046875 Z M 1.765625 -7.046875 "/></g></g></g><g fill="#ffffff" fill-opacity="1"><g transform="translate(5.711156, 34.299281)"><g><path d="M 1.765625 -4.75 L 3.53125 -4.75 L 3.53125 -3.578125 L 1.765625 -3.578125 L 1.765625 -1.171875 L 3.984375 -1.171875 L 3.984375 0 L 0.46875 0 L 0.46875 -8.21875 L 3.984375 -8.21875 L 3.984375 -7.046875 L 1.765625 -7.046875 Z M 1.765625 -4.75 "/></g></g></g><g fill="#ffffff" fill-opacity="1"><g transform="translate(10.029831, 34.299281)"><g><path d="M 0.46875 -8.21875 L 1.765625 -8.21875 L 1.765625 -1.171875 L 3.890625 -1.171875 L 3.890625 0 L 0.46875 0 Z M 0.46875 -8.21875 "/></g></g></g><g fill="#ffffff" fill-opacity="1"><g transform="translate(14.031644, 34.299281)"><g><path d="M 1.703125 -8.21875 L 1.703125 -1.875 C 1.703125 -1.582031 1.757812 -1.375 1.875 -1.25 C 2 -1.132812 2.164062 -1.078125 2.375 -1.078125 C 2.570312 -1.078125 2.734375 -1.132812 2.859375 -1.25 C 2.984375 -1.375 3.046875 -1.582031 3.046875 -1.875 L 3.046875 -8.21875 L 4.265625 -8.21875 L 4.265625 -1.953125 C 4.265625 -1.296875 4.097656 -0.785156 3.765625 -0.421875 C 3.441406 -0.0664062 2.960938 0.109375 2.328125 0.109375 C 1.703125 0.109375 1.222656 -0.0664062 0.890625 -0.421875 C 0.566406 -0.785156 0.40625 -1.296875 0.40625 -1.953125 L 0.40625 -8.21875 Z M 1.703125 -8.21875 "/></g></g></g><g fill="#ffffff" fill-opacity="1"><g transform="translate(18.702383, 34.299281)"><g><path d="M 4.78125 -8.21875 L 3.421875 -4.21875 L 4.875 0 L 3.515625 0 L 2.453125 -3.25 L 1.390625 0 L 0.171875 0 L 1.625 -4.21875 L 0.265625 -8.21875 L 1.609375 -8.21875 L 2.578125 -5.1875 L 3.578125 -8.21875 Z M 4.78125 -8.21875 "/></g></g></g><g fill="#ffffff" fill-opacity="1"><g transform="translate(23.748659, 34.299281)"><g><path d="M 1.765625 -4.75 L 3.53125 -4.75 L 3.53125 -3.578125 L 1.765625 -3.578125 L 1.765625 -1.171875 L 3.984375 -1.171875 L 3.984375 0 L 0.46875 0 L 0.46875 -8.21875 L 3.984375 -8.21875 L 3.984375 -7.046875 L 1.765625 -7.046875 Z M 1.765625 -4.75 "/></g></g></g><path stroke-linecap="butt" transform="matrix(0.00000000195928, -1.122583, 1.122583, 0.00000000195928, 29.8465, 35.333932)" fill="none" stroke-linejoin="miter" d="M 0.001693 0.498627 L 30.299418 0.498627 " stroke="#ffffff" stroke-width="1" stroke-opacity="1" stroke-miterlimit="4"/><path fill="#ff3131" d="M 72.34375 6.585938 C 60.839844 6.53125 50.945312 8.359375 49.515625 8.539062 C 47.234375 8.828125 46.484375 10.398438 46.484375 10.398438 L 42.058594 20.097656 C 42.839844 20 43.847656 19.878906 45.046875 19.734375 C 45.3125 1.328125 91.75 8.4375 93.308594 9.472656 C 86.726562 7.328125 79.246094 6.617188 72.34375 6.585938 Z M 72.34375 6.585938 " fill-opacity="1" fill-rule="nonzero"/><g clip-path="url(#9f91f259b2)"><path fill="#ff3131" d="M 62.027344 9.148438 C 62.027344 9.148438 74.078125 7.082031 93.140625 10.496094 C 92.960938 10.316406 96.828125 13.554688 98.894531 20.210938 C 98.804688 20.121094 47.546875 15.714844 32.710938 27.3125 C 32.980469 26.953125 39.09375 20.570312 57.441406 18.949219 C 75.785156 17.332031 97.636719 21.558594 95.03125 15.351562 C 92.421875 9.148438 78.214844 9.148438 62.027344 9.148438 Z M 62.027344 9.148438 " fill-opacity="1" fill-rule="nonzero"/></g><path fill="#ff3131" d="M 42.332031 20.007812 L 40.78125 21.445312 C 40.78125 21.445312 39.746094 20.121094 36.21875 20.253906 C 32.6875 20.390625 34.621094 16.476562 36.710938 16.433594 C 38.804688 16.386719 40.828125 16.027344 40.667969 17.105469 C 40.511719 18.1875 40.488281 19.601562 40.175781 19.738281 C 39.859375 19.871094 40.195312 16.65625 37.589844 17.152344 C 34.980469 17.648438 35.5 18.703125 36.152344 18.949219 C 36.800781 19.199219 37.746094 18.566406 38.535156 19.488281 C 39.320312 20.410156 41.636719 20.90625 42.332031 20.007812 Z M 42.332031 20.007812 " fill-opacity="1" fill-rule="nonzero"/><path fill="#ff3131" d="M 98.734375 20.164062 L 100.285156 21.605469 C 100.285156 21.605469 101.320312 20.277344 104.851562 20.414062 C 108.378906 20.546875 106.445312 16.636719 104.355469 16.589844 C 102.265625 16.546875 100.242188 16.1875 100.398438 17.265625 C 100.554688 18.34375 100.578125 19.761719 100.894531 19.894531 C 101.207031 20.03125 100.871094 16.816406 103.480469 17.308594 C 106.085938 17.804688 105.570312 18.863281 104.917969 19.109375 C 104.265625 19.355469 103.320312 18.726562 102.535156 19.648438 C 101.746094 20.570312 99.433594 21.0625 98.734375 20.164062 Z M 98.734375 20.164062 " fill-opacity="1" fill-rule="nonzero"/><path fill="#ff3131" d="M 73.425781 20.390625 C 64.691406 20.417969 55.136719 21.375 44.59375 24.570312 L 44.609375 24.566406 C 60.824219 20.683594 79.566406 20.765625 93.019531 21.738281 C 92.976562 21.738281 92.953125 21.738281 92.910156 21.742188 C 91.105469 21.832031 90.011719 22.101562 87.613281 22.3125 C 85.214844 22.527344 82.800781 22.800781 80.945312 23.136719 C 80.019531 23.304688 79.230469 23.484375 78.644531 23.683594 C 78.355469 23.785156 78.113281 23.890625 77.929688 24.003906 C 77.746094 24.113281 77.609375 24.238281 77.554688 24.394531 C 77.496094 24.558594 77.570312 24.734375 77.707031 24.859375 C 94.761719 35.332031 106.390625 15.46875 109.195312 28.941406 C 109.328125 28.933594 109.460938 28.925781 109.585938 28.921875 C 109.011719 24.878906 106.929688 23.882812 106.113281 22.523438 C 105.859375 22.097656 105.519531 21.898438 105.175781 21.867188 C 104.832031 21.835938 104.488281 21.960938 104.1875 22.128906 C 101.953125 23.800781 99.238281 24.847656 96.636719 25.339844 C 93.929688 25.828125 90.867188 26.023438 88.007812 26.023438 C 74.253906 23.542969 90.445312 22.445312 97.34375 21.773438 C 90.078125 21.257812 82.160156 20.359375 73.425781 20.390625 Z M 73.425781 20.390625 " fill-opacity="1" fill-rule="nonzero"/></svg>