<svg xmlns="http://www.w3.org/2000/svg" xmlns:xlink="http://www.w3.org/1999/xlink" width="160" zoomAndPan="magnify" viewBox="0 0 112.5 37.5" height="55" preserveAspectRatio="xMidYMid meet" version="1.0"><defs><g/><clipPath id="37769122df"><path d="M 0.492188 24 L 7 24 L 7 32 L 0.492188 32 Z M 0.492188 24 " clip-rule="nonzero"/></clipPath><clipPath id="73b249438c"><path d="M 44.738281 9 L 103 9 L 103 27 L 44.738281 27 Z M 44.738281 9 " clip-rule="nonzero"/></clipPath><clipPath id="aa4d90fe6a"><path d="M 55 20 L 111.117188 20 L 111.117188 28 L 55 28 Z M 55 20 " clip-rule="nonzero"/></clipPath></defs><g fill="#ffffff" fill-opacity="1"><g transform="translate(1.376358, 10.82125)"><g><path d="M 3.109375 -4.21875 C 3.367188 -4.03125 3.625 -3.84375 3.875 -3.65625 C 4.132812 -3.46875 4.367188 -3.28125 4.578125 -3.09375 C 4.796875 -2.90625 4.96875 -2.707031 5.09375 -2.5 C 5.21875 -2.289062 5.28125 -2.066406 5.28125 -1.828125 C 5.28125 -1.523438 5.171875 -1.222656 4.953125 -0.921875 C 4.734375 -0.628906 4.425781 -0.382812 4.03125 -0.1875 C 3.632812 0.0078125 3.171875 0.109375 2.640625 0.109375 C 2.035156 0.109375 1.53125 0.0351562 1.125 -0.109375 C 0.71875 -0.253906 0.359375 -0.492188 0.046875 -0.828125 L 1.234375 -2.078125 C 1.367188 -1.847656 1.546875 -1.625 1.765625 -1.40625 C 1.984375 -1.195312 2.238281 -1.023438 2.53125 -0.890625 C 2.820312 -0.765625 3.164062 -0.703125 3.5625 -0.703125 C 3.769531 -0.703125 3.914062 -0.726562 4 -0.78125 C 4.09375 -0.84375 4.140625 -0.925781 4.140625 -1.03125 C 4.140625 -1.175781 4.035156 -1.363281 3.828125 -1.59375 C 3.628906 -1.832031 3.367188 -2.085938 3.046875 -2.359375 C 2.734375 -2.628906 2.398438 -2.90625 2.046875 -3.1875 C 1.710938 -3.457031 1.414062 -3.707031 1.15625 -3.9375 C 0.894531 -4.164062 0.6875 -4.398438 0.53125 -4.640625 C 0.382812 -4.890625 0.3125 -5.160156 0.3125 -5.453125 C 0.3125 -5.753906 0.398438 -6.046875 0.578125 -6.328125 C 0.765625 -6.609375 1.039062 -6.84375 1.40625 -7.03125 C 1.78125 -7.21875 2.25 -7.3125 2.8125 -7.3125 C 3.375 -7.3125 3.816406 -7.242188 4.140625 -7.109375 C 4.460938 -6.984375 4.703125 -6.851562 4.859375 -6.71875 L 4.28125 -5.140625 C 4.050781 -5.328125 3.804688 -5.515625 3.546875 -5.703125 C 3.296875 -5.898438 3.019531 -6.066406 2.71875 -6.203125 C 2.425781 -6.335938 2.101562 -6.40625 1.75 -6.40625 C 1.601562 -6.40625 1.484375 -6.382812 1.390625 -6.34375 C 1.296875 -6.300781 1.25 -6.21875 1.25 -6.09375 C 1.25 -5.976562 1.335938 -5.816406 1.515625 -5.609375 C 1.703125 -5.398438 1.9375 -5.171875 2.21875 -4.921875 C 2.507812 -4.671875 2.804688 -4.4375 3.109375 -4.21875 Z M 3.109375 -4.21875 "/></g></g></g><g fill="#ffffff" fill-opacity="1"><g transform="translate(8.279993, 10.82125)"><g><path d="M 5.046875 -0.5625 C 5.046875 -0.550781 4.988281 -0.523438 4.875 -0.484375 C 4.769531 -0.441406 4.640625 -0.390625 4.484375 -0.328125 C 4.335938 -0.265625 4.1875 -0.203125 4.03125 -0.140625 C 3.875 -0.078125 3.742188 -0.0234375 3.640625 0.015625 C 3.535156 0.0664062 3.484375 0.09375 3.484375 0.09375 L 3.484375 -0.8125 C 3.429688 -0.757812 3.34375 -0.679688 3.21875 -0.578125 C 3.09375 -0.472656 2.945312 -0.363281 2.78125 -0.25 C 2.625 -0.132812 2.453125 -0.0390625 2.265625 0.03125 C 2.078125 0.113281 1.890625 0.15625 1.703125 0.15625 L 1.6875 0.15625 C 1.394531 0.15625 1.164062 0.109375 1 0.015625 C 0.84375 -0.0664062 0.726562 -0.175781 0.65625 -0.3125 C 0.582031 -0.457031 0.535156 -0.609375 0.515625 -0.765625 C 0.503906 -0.921875 0.5 -1.054688 0.5 -1.171875 L 0.5 -3.640625 C 0.5 -3.640625 0.492188 -3.691406 0.484375 -3.796875 C 0.472656 -3.910156 0.441406 -4.035156 0.390625 -4.171875 C 0.335938 -4.316406 0.242188 -4.453125 0.109375 -4.578125 L 1.59375 -5.25 L 1.59375 -1.8125 C 1.59375 -1.8125 1.597656 -1.765625 1.609375 -1.671875 C 1.617188 -1.578125 1.648438 -1.46875 1.703125 -1.34375 C 1.765625 -1.226562 1.863281 -1.125 2 -1.03125 C 2.144531 -0.9375 2.34375 -0.890625 2.59375 -0.890625 C 2.707031 -0.890625 2.835938 -0.90625 2.984375 -0.9375 C 3.128906 -0.96875 3.289062 -1.019531 3.46875 -1.09375 L 3.46875 -3.59375 C 3.46875 -3.59375 3.460938 -3.644531 3.453125 -3.75 C 3.441406 -3.863281 3.40625 -3.992188 3.34375 -4.140625 C 3.289062 -4.285156 3.203125 -4.414062 3.078125 -4.53125 L 4.65625 -5.25 L 4.65625 -1.46875 C 4.65625 -1.46875 4.660156 -1.414062 4.671875 -1.3125 C 4.679688 -1.21875 4.710938 -1.097656 4.765625 -0.953125 C 4.816406 -0.804688 4.910156 -0.675781 5.046875 -0.5625 Z M 5.046875 -0.5625 "/></g></g></g><g fill="#ffffff" fill-opacity="1"><g transform="translate(14.968532, 10.82125)"><g><path d="M 3.53125 -5.21875 C 3.78125 -5.21875 4 -5.140625 4.1875 -4.984375 C 4.375 -4.828125 4.53125 -4.617188 4.65625 -4.359375 C 4.78125 -4.109375 4.875 -3.828125 4.9375 -3.515625 C 5.007812 -3.210938 5.046875 -2.910156 5.046875 -2.609375 C 5.046875 -2.097656 4.960938 -1.632812 4.796875 -1.21875 C 4.640625 -0.800781 4.40625 -0.46875 4.09375 -0.21875 C 3.789062 0.0195312 3.414062 0.140625 2.96875 0.140625 C 2.78125 0.140625 2.578125 0.117188 2.359375 0.078125 C 2.148438 0.0351562 1.9375 -0.0390625 1.71875 -0.15625 L 1.71875 0.796875 C 1.71875 0.804688 1.722656 0.867188 1.734375 0.984375 C 1.742188 1.109375 1.773438 1.257812 1.828125 1.4375 C 1.878906 1.613281 1.96875 1.800781 2.09375 2 L 0.125 2 C 0.25 1.84375 0.335938 1.679688 0.390625 1.515625 C 0.441406 1.359375 0.472656 1.210938 0.484375 1.078125 C 0.503906 0.941406 0.515625 0.851562 0.515625 0.8125 L 0.515625 -3.609375 C 0.515625 -3.617188 0.503906 -3.671875 0.484375 -3.765625 C 0.472656 -3.867188 0.441406 -3.988281 0.390625 -4.125 C 0.335938 -4.269531 0.25 -4.40625 0.125 -4.53125 C 0.125 -4.53125 0.175781 -4.554688 0.28125 -4.609375 C 0.382812 -4.660156 0.515625 -4.71875 0.671875 -4.78125 C 0.828125 -4.851562 0.976562 -4.925781 1.125 -5 C 1.28125 -5.070312 1.410156 -5.128906 1.515625 -5.171875 C 1.628906 -5.222656 1.6875 -5.25 1.6875 -5.25 L 1.6875 -4.296875 C 1.726562 -4.328125 1.816406 -4.390625 1.953125 -4.484375 C 2.097656 -4.585938 2.257812 -4.695312 2.4375 -4.8125 C 2.625 -4.925781 2.8125 -5.019531 3 -5.09375 C 3.195312 -5.175781 3.375 -5.21875 3.53125 -5.21875 Z M 3.375 -0.640625 C 3.5 -0.742188 3.59375 -0.953125 3.65625 -1.265625 C 3.726562 -1.578125 3.765625 -1.910156 3.765625 -2.265625 C 3.765625 -2.597656 3.738281 -2.910156 3.6875 -3.203125 C 3.632812 -3.503906 3.554688 -3.722656 3.453125 -3.859375 C 3.367188 -3.960938 3.242188 -4.035156 3.078125 -4.078125 C 2.921875 -4.117188 2.765625 -4.140625 2.609375 -4.140625 C 2.421875 -4.140625 2.238281 -4.117188 2.0625 -4.078125 C 1.882812 -4.046875 1.757812 -4.015625 1.6875 -3.984375 L 1.6875 -1.359375 C 1.757812 -0.796875 2.128906 -0.488281 2.796875 -0.4375 C 2.890625 -0.4375 2.988281 -0.453125 3.09375 -0.484375 C 3.195312 -0.515625 3.289062 -0.566406 3.375 -0.640625 Z M 3.375 -0.640625 "/></g></g></g><g fill="#ffffff" fill-opacity="1"><g transform="translate(21.739006, 10.82125)"><g><path d="M 3.109375 -0.609375 C 3.273438 -0.609375 3.4375 -0.617188 3.59375 -0.640625 C 3.757812 -0.660156 3.914062 -0.6875 4.0625 -0.71875 C 4.039062 -0.6875 3.992188 -0.625 3.921875 -0.53125 C 3.847656 -0.445312 3.742188 -0.351562 3.609375 -0.25 C 3.472656 -0.144531 3.300781 -0.0546875 3.09375 0.015625 C 2.882812 0.0976562 2.640625 0.140625 2.359375 0.140625 C 1.710938 0.140625 1.191406 -0.0820312 0.796875 -0.53125 C 0.398438 -0.976562 0.203125 -1.679688 0.203125 -2.640625 C 0.203125 -3.140625 0.28125 -3.585938 0.4375 -3.984375 C 0.59375 -4.378906 0.828125 -4.6875 1.140625 -4.90625 C 1.460938 -5.132812 1.875 -5.25 2.375 -5.25 C 2.664062 -5.25 2.910156 -5.207031 3.109375 -5.125 C 3.316406 -5.050781 3.484375 -4.960938 3.609375 -4.859375 C 3.734375 -4.765625 3.828125 -4.679688 3.890625 -4.609375 C 3.953125 -4.535156 3.984375 -4.5 3.984375 -4.5 L 1.6875 -1.65625 C 1.6875 -1.65625 1.6875 -1.640625 1.6875 -1.609375 C 1.6875 -1.578125 1.703125 -1.535156 1.734375 -1.484375 C 1.859375 -1.210938 1.988281 -1.015625 2.125 -0.890625 C 2.269531 -0.765625 2.425781 -0.6875 2.59375 -0.65625 C 2.757812 -0.625 2.929688 -0.609375 3.109375 -0.609375 Z M 1.125 -3.9375 C 1.125 -3.75 1.144531 -3.546875 1.1875 -3.328125 C 1.238281 -3.117188 1.289062 -2.914062 1.34375 -2.71875 C 1.40625 -2.519531 1.457031 -2.359375 1.5 -2.234375 C 1.539062 -2.109375 1.5625 -2.046875 1.5625 -2.046875 C 1.5625 -2.046875 1.597656 -2.101562 1.671875 -2.21875 C 1.753906 -2.332031 1.847656 -2.46875 1.953125 -2.625 C 2.054688 -2.789062 2.15625 -2.945312 2.25 -3.09375 C 2.351562 -3.25 2.429688 -3.359375 2.484375 -3.421875 C 2.648438 -3.679688 2.710938 -3.890625 2.671875 -4.046875 C 2.628906 -4.203125 2.507812 -4.3125 2.3125 -4.375 C 2.113281 -4.445312 1.875 -4.492188 1.59375 -4.515625 C 1.414062 -4.523438 1.296875 -4.476562 1.234375 -4.375 C 1.171875 -4.28125 1.132812 -4.132812 1.125 -3.9375 Z M 1.125 -3.9375 "/></g></g></g><g fill="#ffffff" fill-opacity="1"><g transform="translate(27.382775, 10.82125)"><g><path d="M 3.34375 -5.3125 C 3.570312 -5.3125 3.75 -5.273438 3.875 -5.203125 C 4 -5.140625 4.085938 -5.078125 4.140625 -5.015625 C 4.203125 -4.960938 4.234375 -4.9375 4.234375 -4.9375 L 3.234375 -3.671875 C 3.234375 -3.671875 3.203125 -3.71875 3.140625 -3.8125 C 3.078125 -3.90625 2.984375 -3.992188 2.859375 -4.078125 C 2.734375 -4.171875 2.5625 -4.21875 2.34375 -4.21875 C 2.25 -4.21875 2.148438 -4.203125 2.046875 -4.171875 C 1.941406 -4.148438 1.832031 -4.113281 1.71875 -4.0625 L 1.71875 -1.21875 C 1.71875 -1.195312 1.722656 -1.128906 1.734375 -1.015625 C 1.742188 -0.898438 1.773438 -0.753906 1.828125 -0.578125 C 1.890625 -0.398438 1.984375 -0.207031 2.109375 0 L 0.140625 0 C 0.253906 -0.144531 0.335938 -0.300781 0.390625 -0.46875 C 0.453125 -0.632812 0.488281 -0.785156 0.5 -0.921875 C 0.507812 -1.054688 0.515625 -1.144531 0.515625 -1.1875 L 0.515625 -3.6875 C 0.515625 -3.6875 0.507812 -3.742188 0.5 -3.859375 C 0.488281 -3.972656 0.453125 -4.097656 0.390625 -4.234375 C 0.335938 -4.378906 0.253906 -4.503906 0.140625 -4.609375 L 1.71875 -5.328125 L 1.71875 -4.390625 C 1.78125 -4.472656 1.890625 -4.585938 2.046875 -4.734375 C 2.203125 -4.890625 2.390625 -5.023438 2.609375 -5.140625 C 2.828125 -5.253906 3.070312 -5.3125 3.34375 -5.3125 Z M 3.34375 -5.3125 "/></g></g></g><g fill="#ffffff" fill-opacity="1"><g transform="translate(33.091446, 10.82125)"><g/></g></g><g fill="#ffffff" fill-opacity="1"><g transform="translate(7.658026, 21.06397)"><g><path d="M 4.40625 -0.6875 C 4.59375 -0.6875 4.78125 -0.691406 4.96875 -0.703125 C 5.164062 -0.722656 5.363281 -0.742188 5.5625 -0.765625 C 5.269531 -0.453125 4.929688 -0.226562 4.546875 -0.09375 C 4.160156 0.0390625 3.75 0.109375 3.3125 0.109375 C 2.875 0.109375 2.46875 0.046875 2.09375 -0.078125 C 1.71875 -0.210938 1.382812 -0.421875 1.09375 -0.703125 C 0.8125 -0.992188 0.585938 -1.375 0.421875 -1.84375 C 0.265625 -2.320312 0.1875 -2.90625 0.1875 -3.59375 C 0.1875 -4.5 0.328125 -5.222656 0.609375 -5.765625 C 0.890625 -6.316406 1.265625 -6.710938 1.734375 -6.953125 C 2.203125 -7.191406 2.726562 -7.3125 3.3125 -7.3125 C 3.738281 -7.3125 4.140625 -7.238281 4.515625 -7.09375 C 4.898438 -6.957031 5.234375 -6.742188 5.515625 -6.453125 L 4.421875 -5.109375 C 4.285156 -5.347656 4.113281 -5.550781 3.90625 -5.71875 C 3.707031 -5.894531 3.445312 -6.03125 3.125 -6.125 C 2.8125 -6.21875 2.410156 -6.265625 1.921875 -6.265625 C 1.472656 -6.265625 1.253906 -5.875 1.265625 -5.09375 C 1.265625 -4.84375 1.289062 -4.5625 1.34375 -4.25 C 1.394531 -3.945312 1.460938 -3.628906 1.546875 -3.296875 C 1.640625 -2.941406 1.753906 -2.609375 1.890625 -2.296875 C 2.023438 -1.984375 2.203125 -1.707031 2.421875 -1.46875 C 2.640625 -1.226562 2.90625 -1.035156 3.21875 -0.890625 C 3.539062 -0.753906 3.9375 -0.6875 4.40625 -0.6875 Z M 4.40625 -0.6875 "/></g></g></g><g fill="#ffffff" fill-opacity="1"><g transform="translate(14.715296, 21.06397)"><g><path d="M 4.359375 -1.359375 C 4.359375 -1.316406 4.363281 -1.242188 4.375 -1.140625 C 4.394531 -1.046875 4.429688 -0.929688 4.484375 -0.796875 C 4.535156 -0.671875 4.617188 -0.5625 4.734375 -0.46875 L 3.625 0.015625 C 3.625 0.015625 3.582031 0 3.5 -0.03125 C 3.425781 -0.0703125 3.351562 -0.140625 3.28125 -0.234375 C 3.207031 -0.335938 3.171875 -0.484375 3.171875 -0.671875 L 3.171875 -0.859375 C 3.117188 -0.804688 3.039062 -0.726562 2.9375 -0.625 C 2.832031 -0.53125 2.707031 -0.425781 2.5625 -0.3125 C 2.425781 -0.207031 2.28125 -0.113281 2.125 -0.03125 C 1.96875 0.0390625 1.820312 0.078125 1.6875 0.078125 C 1.53125 0.078125 1.359375 0.0195312 1.171875 -0.09375 C 0.984375 -0.21875 0.804688 -0.367188 0.640625 -0.546875 C 0.472656 -0.722656 0.335938 -0.914062 0.234375 -1.125 C 0.128906 -1.332031 0.078125 -1.523438 0.078125 -1.703125 C 0.078125 -1.816406 0.0976562 -1.921875 0.140625 -2.015625 C 0.191406 -2.109375 0.28125 -2.1875 0.40625 -2.25 C 0.695312 -2.394531 1.007812 -2.550781 1.34375 -2.71875 C 1.675781 -2.882812 1.992188 -3.046875 2.296875 -3.203125 C 2.609375 -3.359375 2.878906 -3.488281 3.109375 -3.59375 C 3.109375 -3.65625 3.101562 -3.742188 3.09375 -3.859375 C 3.09375 -3.972656 3.078125 -4.085938 3.046875 -4.203125 C 3.023438 -4.328125 2.988281 -4.429688 2.9375 -4.515625 C 2.882812 -4.609375 2.820312 -4.65625 2.75 -4.65625 C 2.4375 -4.65625 2.144531 -4.546875 1.875 -4.328125 C 1.601562 -4.109375 1.394531 -3.851562 1.25 -3.5625 L 0.734375 -4.8125 C 1.023438 -5.09375 1.367188 -5.257812 1.765625 -5.3125 C 2.171875 -5.375 2.5625 -5.328125 2.9375 -5.171875 C 3.289062 -5.035156 3.5625 -4.890625 3.75 -4.734375 C 3.945312 -4.578125 4.085938 -4.425781 4.171875 -4.28125 C 4.265625 -4.132812 4.316406 -4.003906 4.328125 -3.890625 C 4.347656 -3.785156 4.359375 -3.707031 4.359375 -3.65625 C 4.359375 -3.25 4.359375 -2.863281 4.359375 -2.5 C 4.359375 -2.144531 4.359375 -1.765625 4.359375 -1.359375 Z M 2.28125 -1.046875 C 2.445312 -1.046875 2.613281 -1.054688 2.78125 -1.078125 C 2.945312 -1.109375 3.078125 -1.144531 3.171875 -1.1875 L 3.109375 -3.234375 C 3.046875 -3.191406 2.914062 -3.109375 2.71875 -2.984375 C 2.519531 -2.867188 2.210938 -2.679688 1.796875 -2.421875 C 1.660156 -2.335938 1.5625 -2.238281 1.5 -2.125 C 1.445312 -2.007812 1.421875 -1.890625 1.421875 -1.765625 C 1.421875 -1.609375 1.460938 -1.460938 1.546875 -1.328125 C 1.628906 -1.191406 1.734375 -1.113281 1.859375 -1.09375 C 1.984375 -1.0625 2.125 -1.046875 2.28125 -1.046875 Z M 2.28125 -1.046875 "/></g></g></g><g fill="#ffffff" fill-opacity="1"><g transform="translate(21.086302, 21.06397)"><g><path d="M 3.34375 -5.3125 C 3.570312 -5.3125 3.75 -5.273438 3.875 -5.203125 C 4 -5.140625 4.085938 -5.078125 4.140625 -5.015625 C 4.203125 -4.960938 4.234375 -4.9375 4.234375 -4.9375 L 3.234375 -3.671875 C 3.234375 -3.671875 3.203125 -3.71875 3.140625 -3.8125 C 3.078125 -3.90625 2.984375 -3.992188 2.859375 -4.078125 C 2.734375 -4.171875 2.5625 -4.21875 2.34375 -4.21875 C 2.25 -4.21875 2.148438 -4.203125 2.046875 -4.171875 C 1.941406 -4.148438 1.832031 -4.113281 1.71875 -4.0625 L 1.71875 -1.21875 C 1.71875 -1.195312 1.722656 -1.128906 1.734375 -1.015625 C 1.742188 -0.898438 1.773438 -0.753906 1.828125 -0.578125 C 1.890625 -0.398438 1.984375 -0.207031 2.109375 0 L 0.140625 0 C 0.253906 -0.144531 0.335938 -0.300781 0.390625 -0.46875 C 0.453125 -0.632812 0.488281 -0.785156 0.5 -0.921875 C 0.507812 -1.054688 0.515625 -1.144531 0.515625 -1.1875 L 0.515625 -3.6875 C 0.515625 -3.6875 0.507812 -3.742188 0.5 -3.859375 C 0.488281 -3.972656 0.453125 -4.097656 0.390625 -4.234375 C 0.335938 -4.378906 0.253906 -4.503906 0.140625 -4.609375 L 1.71875 -5.328125 L 1.71875 -4.390625 C 1.78125 -4.472656 1.890625 -4.585938 2.046875 -4.734375 C 2.203125 -4.890625 2.390625 -5.023438 2.609375 -5.140625 C 2.828125 -5.253906 3.070312 -5.3125 3.34375 -5.3125 Z M 3.34375 -5.3125 "/></g></g></g><g fill="#ffffff" fill-opacity="1"><g transform="translate(26.796441, 21.06397)"><g/></g></g><g clip-path="url(#37769122df)"><g fill="#ffffff" fill-opacity="1"><g transform="translate(0.802873, 31.306689)"><g><path d="M 2.875 -7.171875 C 2.875 -7.171875 2.941406 -7.164062 3.078125 -7.15625 C 3.222656 -7.144531 3.410156 -7.109375 3.640625 -7.046875 C 3.867188 -6.984375 4.109375 -6.882812 4.359375 -6.75 C 4.617188 -6.625 4.863281 -6.445312 5.09375 -6.21875 C 5.320312 -5.988281 5.507812 -5.691406 5.65625 -5.328125 C 5.800781 -4.960938 5.875 -4.515625 5.875 -3.984375 C 5.875 -3.328125 5.789062 -2.769531 5.625 -2.3125 C 5.457031 -1.851562 5.242188 -1.476562 4.984375 -1.1875 C 4.734375 -0.90625 4.457031 -0.679688 4.15625 -0.515625 C 3.863281 -0.359375 3.585938 -0.242188 3.328125 -0.171875 C 3.066406 -0.109375 2.851562 -0.0664062 2.6875 -0.046875 C 2.53125 -0.0351562 2.453125 -0.03125 2.453125 -0.03125 L 0.15625 -0.03125 C 0.28125 -0.175781 0.367188 -0.332031 0.421875 -0.5 C 0.472656 -0.664062 0.503906 -0.8125 0.515625 -0.9375 C 0.535156 -1.070312 0.546875 -1.148438 0.546875 -1.171875 L 0.546875 -6 C 0.546875 -6.039062 0.535156 -6.125 0.515625 -6.25 C 0.503906 -6.382812 0.472656 -6.535156 0.421875 -6.703125 C 0.367188 -6.867188 0.28125 -7.023438 0.15625 -7.171875 Z M 2.203125 -0.71875 C 2.273438 -0.71875 2.398438 -0.726562 2.578125 -0.75 C 2.753906 -0.78125 2.945312 -0.847656 3.15625 -0.953125 C 3.375 -1.054688 3.582031 -1.210938 3.78125 -1.421875 C 3.976562 -1.640625 4.140625 -1.9375 4.265625 -2.3125 C 4.390625 -2.6875 4.453125 -3.160156 4.453125 -3.734375 C 4.453125 -4.285156 4.378906 -4.734375 4.234375 -5.078125 C 4.097656 -5.421875 3.925781 -5.6875 3.71875 -5.875 C 3.519531 -6.070312 3.316406 -6.210938 3.109375 -6.296875 C 2.910156 -6.378906 2.738281 -6.425781 2.59375 -6.4375 C 2.457031 -6.457031 2.390625 -6.46875 2.390625 -6.46875 L 1.90625 -6.46875 L 1.90625 -0.71875 Z M 2.203125 -0.71875 "/></g></g></g></g><g fill="#ffffff" fill-opacity="1"><g transform="translate(8.362046, 31.306689)"><g><path d="M 3.109375 -0.609375 C 3.273438 -0.609375 3.4375 -0.617188 3.59375 -0.640625 C 3.757812 -0.660156 3.914062 -0.6875 4.0625 -0.71875 C 4.039062 -0.6875 3.992188 -0.625 3.921875 -0.53125 C 3.847656 -0.445312 3.742188 -0.351562 3.609375 -0.25 C 3.472656 -0.144531 3.300781 -0.0546875 3.09375 0.015625 C 2.882812 0.0976562 2.640625 0.140625 2.359375 0.140625 C 1.710938 0.140625 1.191406 -0.0820312 0.796875 -0.53125 C 0.398438 -0.976562 0.203125 -1.679688 0.203125 -2.640625 C 0.203125 -3.140625 0.28125 -3.585938 0.4375 -3.984375 C 0.59375 -4.378906 0.828125 -4.6875 1.140625 -4.90625 C 1.460938 -5.132812 1.875 -5.25 2.375 -5.25 C 2.664062 -5.25 2.910156 -5.207031 3.109375 -5.125 C 3.316406 -5.050781 3.484375 -4.960938 3.609375 -4.859375 C 3.734375 -4.765625 3.828125 -4.679688 3.890625 -4.609375 C 3.953125 -4.535156 3.984375 -4.5 3.984375 -4.5 L 1.6875 -1.65625 C 1.6875 -1.65625 1.6875 -1.640625 1.6875 -1.609375 C 1.6875 -1.578125 1.703125 -1.535156 1.734375 -1.484375 C 1.859375 -1.210938 1.988281 -1.015625 2.125 -0.890625 C 2.269531 -0.765625 2.425781 -0.6875 2.59375 -0.65625 C 2.757812 -0.625 2.929688 -0.609375 3.109375 -0.609375 Z M 1.125 -3.9375 C 1.125 -3.75 1.144531 -3.546875 1.1875 -3.328125 C 1.238281 -3.117188 1.289062 -2.914062 1.34375 -2.71875 C 1.40625 -2.519531 1.457031 -2.359375 1.5 -2.234375 C 1.539062 -2.109375 1.5625 -2.046875 1.5625 -2.046875 C 1.5625 -2.046875 1.597656 -2.101562 1.671875 -2.21875 C 1.753906 -2.332031 1.847656 -2.46875 1.953125 -2.625 C 2.054688 -2.789062 2.15625 -2.945312 2.25 -3.09375 C 2.351562 -3.25 2.429688 -3.359375 2.484375 -3.421875 C 2.648438 -3.679688 2.710938 -3.890625 2.671875 -4.046875 C 2.628906 -4.203125 2.507812 -4.3125 2.3125 -4.375 C 2.113281 -4.445312 1.875 -4.492188 1.59375 -4.515625 C 1.414062 -4.523438 1.296875 -4.476562 1.234375 -4.375 C 1.171875 -4.28125 1.132812 -4.132812 1.125 -3.9375 Z M 1.125 -3.9375 "/></g></g></g><g fill="#ffffff" fill-opacity="1"><g transform="translate(14.005815, 31.306689)"><g><path d="M 0.125 0.015625 C 0.25 -0.140625 0.335938 -0.300781 0.390625 -0.46875 C 0.441406 -0.632812 0.472656 -0.785156 0.484375 -0.921875 C 0.503906 -1.054688 0.515625 -1.148438 0.515625 -1.203125 L 0.515625 -6.265625 C 0.515625 -6.265625 0.507812 -6.316406 0.5 -6.421875 C 0.488281 -6.523438 0.453125 -6.648438 0.390625 -6.796875 C 0.335938 -6.941406 0.25 -7.070312 0.125 -7.1875 C 0.125 -7.1875 0.175781 -7.210938 0.28125 -7.265625 C 0.382812 -7.316406 0.515625 -7.375 0.671875 -7.4375 C 0.828125 -7.507812 0.976562 -7.582031 1.125 -7.65625 C 1.28125 -7.726562 1.410156 -7.785156 1.515625 -7.828125 C 1.628906 -7.878906 1.6875 -7.90625 1.6875 -7.90625 L 1.6875 -1.203125 C 1.6875 -1.148438 1.703125 -1.015625 1.734375 -0.796875 C 1.773438 -0.578125 1.894531 -0.304688 2.09375 0.015625 Z M 0.125 0.015625 "/></g></g></g><g fill="#ffffff" fill-opacity="1"><g transform="translate(17.74443, 31.306689)"><g><path d="M 5.046875 -0.5625 C 5.046875 -0.550781 4.988281 -0.523438 4.875 -0.484375 C 4.769531 -0.441406 4.640625 -0.390625 4.484375 -0.328125 C 4.335938 -0.265625 4.1875 -0.203125 4.03125 -0.140625 C 3.875 -0.078125 3.742188 -0.0234375 3.640625 0.015625 C 3.535156 0.0664062 3.484375 0.09375 3.484375 0.09375 L 3.484375 -0.8125 C 3.429688 -0.757812 3.34375 -0.679688 3.21875 -0.578125 C 3.09375 -0.472656 2.945312 -0.363281 2.78125 -0.25 C 2.625 -0.132812 2.453125 -0.0390625 2.265625 0.03125 C 2.078125 0.113281 1.890625 0.15625 1.703125 0.15625 L 1.6875 0.15625 C 1.394531 0.15625 1.164062 0.109375 1 0.015625 C 0.84375 -0.0664062 0.726562 -0.175781 0.65625 -0.3125 C 0.582031 -0.457031 0.535156 -0.609375 0.515625 -0.765625 C 0.503906 -0.921875 0.5 -1.054688 0.5 -1.171875 L 0.5 -3.640625 C 0.5 -3.640625 0.492188 -3.691406 0.484375 -3.796875 C 0.472656 -3.910156 0.441406 -4.035156 0.390625 -4.171875 C 0.335938 -4.316406 0.242188 -4.453125 0.109375 -4.578125 L 1.59375 -5.25 L 1.59375 -1.8125 C 1.59375 -1.8125 1.597656 -1.765625 1.609375 -1.671875 C 1.617188 -1.578125 1.648438 -1.46875 1.703125 -1.34375 C 1.765625 -1.226562 1.863281 -1.125 2 -1.03125 C 2.144531 -0.9375 2.34375 -0.890625 2.59375 -0.890625 C 2.707031 -0.890625 2.835938 -0.90625 2.984375 -0.9375 C 3.128906 -0.96875 3.289062 -1.019531 3.46875 -1.09375 L 3.46875 -3.59375 C 3.46875 -3.59375 3.460938 -3.644531 3.453125 -3.75 C 3.441406 -3.863281 3.40625 -3.992188 3.34375 -4.140625 C 3.289062 -4.285156 3.203125 -4.414062 3.078125 -4.53125 L 4.65625 -5.25 L 4.65625 -1.46875 C 4.65625 -1.46875 4.660156 -1.414062 4.671875 -1.3125 C 4.679688 -1.21875 4.710938 -1.097656 4.765625 -0.953125 C 4.816406 -0.804688 4.910156 -0.675781 5.046875 -0.5625 Z M 5.046875 -0.5625 "/></g></g></g><g fill="#ffffff" fill-opacity="1"><g transform="translate(24.432969, 31.306689)"><g><path d="M 5.171875 -0.015625 L 2.9375 -0.015625 C 3 -0.109375 3.046875 -0.191406 3.078125 -0.265625 C 3.117188 -0.335938 3.140625 -0.394531 3.140625 -0.4375 C 3.140625 -0.488281 3.132812 -0.539062 3.125 -0.59375 C 3.113281 -0.65625 3.085938 -0.71875 3.046875 -0.78125 L 3.03125 -0.8125 L 2.21875 -2 L 1.578125 -0.78125 C 1.546875 -0.71875 1.515625 -0.65625 1.484375 -0.59375 C 1.460938 -0.539062 1.453125 -0.488281 1.453125 -0.4375 C 1.453125 -0.394531 1.472656 -0.335938 1.515625 -0.265625 C 1.566406 -0.191406 1.625 -0.109375 1.6875 -0.015625 L -0.015625 -0.015625 C 0.128906 -0.117188 0.273438 -0.25 0.421875 -0.40625 C 0.578125 -0.570312 0.738281 -0.785156 0.90625 -1.046875 L 1.890625 -2.484375 L 0.890625 -3.953125 C 0.710938 -4.203125 0.554688 -4.414062 0.421875 -4.59375 C 0.285156 -4.78125 0.140625 -4.945312 -0.015625 -5.09375 L 2.21875 -5.09375 C 2.082031 -4.914062 2.015625 -4.773438 2.015625 -4.671875 C 2.015625 -4.585938 2.054688 -4.472656 2.140625 -4.328125 L 2.765625 -3.296875 L 3.328125 -4.328125 C 3.347656 -4.367188 3.375 -4.429688 3.40625 -4.515625 C 3.445312 -4.597656 3.46875 -4.65625 3.46875 -4.6875 C 3.46875 -4.738281 3.390625 -4.875 3.234375 -5.09375 L 4.9375 -5.09375 C 4.800781 -5.019531 4.660156 -4.90625 4.515625 -4.75 C 4.367188 -4.59375 4.195312 -4.382812 4 -4.125 L 3.046875 -2.90625 L 4.171875 -1.265625 C 4.316406 -1.046875 4.46875 -0.832031 4.625 -0.625 C 4.789062 -0.414062 4.972656 -0.210938 5.171875 -0.015625 Z M 5.171875 -0.015625 "/></g></g></g><g fill="#ffffff" fill-opacity="1"><g transform="translate(31.080534, 31.306689)"><g><path d="M 3.109375 -0.609375 C 3.273438 -0.609375 3.4375 -0.617188 3.59375 -0.640625 C 3.757812 -0.660156 3.914062 -0.6875 4.0625 -0.71875 C 4.039062 -0.6875 3.992188 -0.625 3.921875 -0.53125 C 3.847656 -0.445312 3.742188 -0.351562 3.609375 -0.25 C 3.472656 -0.144531 3.300781 -0.0546875 3.09375 0.015625 C 2.882812 0.0976562 2.640625 0.140625 2.359375 0.140625 C 1.710938 0.140625 1.191406 -0.0820312 0.796875 -0.53125 C 0.398438 -0.976562 0.203125 -1.679688 0.203125 -2.640625 C 0.203125 -3.140625 0.28125 -3.585938 0.4375 -3.984375 C 0.59375 -4.378906 0.828125 -4.6875 1.140625 -4.90625 C 1.460938 -5.132812 1.875 -5.25 2.375 -5.25 C 2.664062 -5.25 2.910156 -5.207031 3.109375 -5.125 C 3.316406 -5.050781 3.484375 -4.960938 3.609375 -4.859375 C 3.734375 -4.765625 3.828125 -4.679688 3.890625 -4.609375 C 3.953125 -4.535156 3.984375 -4.5 3.984375 -4.5 L 1.6875 -1.65625 C 1.6875 -1.65625 1.6875 -1.640625 1.6875 -1.609375 C 1.6875 -1.578125 1.703125 -1.535156 1.734375 -1.484375 C 1.859375 -1.210938 1.988281 -1.015625 2.125 -0.890625 C 2.269531 -0.765625 2.425781 -0.6875 2.59375 -0.65625 C 2.757812 -0.625 2.929688 -0.609375 3.109375 -0.609375 Z M 1.125 -3.9375 C 1.125 -3.75 1.144531 -3.546875 1.1875 -3.328125 C 1.238281 -3.117188 1.289062 -2.914062 1.34375 -2.71875 C 1.40625 -2.519531 1.457031 -2.359375 1.5 -2.234375 C 1.539062 -2.109375 1.5625 -2.046875 1.5625 -2.046875 C 1.5625 -2.046875 1.597656 -2.101562 1.671875 -2.21875 C 1.753906 -2.332031 1.847656 -2.46875 1.953125 -2.625 C 2.054688 -2.789062 2.15625 -2.945312 2.25 -3.09375 C 2.351562 -3.25 2.429688 -3.359375 2.484375 -3.421875 C 2.648438 -3.679688 2.710938 -3.890625 2.671875 -4.046875 C 2.628906 -4.203125 2.507812 -4.3125 2.3125 -4.375 C 2.113281 -4.445312 1.875 -4.492188 1.59375 -4.515625 C 1.414062 -4.523438 1.296875 -4.476562 1.234375 -4.375 C 1.171875 -4.28125 1.132812 -4.132812 1.125 -3.9375 Z M 1.125 -3.9375 "/></g></g></g><path stroke-linecap="butt" transform="matrix(0.00000000143022, -0.819457, 0.819457, 0.00000000143022, 39.285721, 33.343151)" fill="none" stroke-linejoin="miter" d="M -0.000730627 0.499832 L 36.227515 0.499832 " stroke="#ffffff" stroke-width="1" stroke-opacity="1" stroke-miterlimit="4"/><path fill="#ffffff" d="M 79.175781 8.226562 C 69.183594 8.179688 60.59375 9.765625 59.351562 9.921875 C 57.371094 10.175781 56.71875 11.539062 56.71875 11.539062 L 52.878906 19.957031 C 53.558594 19.875 54.433594 19.769531 55.46875 19.644531 C 55.703125 3.664062 96.027344 9.835938 97.378906 10.734375 C 91.664062 8.871094 85.167969 8.253906 79.175781 8.226562 Z M 79.175781 8.226562 " fill-opacity="1" fill-rule="nonzero"/><g clip-path="url(#73b249438c)"><path fill="#ffffff" d="M 70.214844 10.453125 C 70.214844 10.453125 80.679688 8.65625 97.234375 11.625 C 97.078125 11.46875 100.433594 14.277344 102.230469 20.058594 C 102.152344 19.980469 57.644531 16.152344 44.757812 26.226562 C 44.992188 25.914062 50.304688 20.371094 66.234375 18.964844 C 82.164062 17.558594 101.136719 21.230469 98.875 15.839844 C 96.609375 10.453125 84.269531 10.453125 70.214844 10.453125 Z M 70.214844 10.453125 " fill-opacity="1" fill-rule="nonzero"/></g><path fill="#ffffff" d="M 53.113281 19.882812 L 51.769531 21.128906 C 51.769531 21.128906 50.871094 19.980469 47.804688 20.097656 C 44.738281 20.214844 46.417969 16.816406 48.234375 16.777344 C 50.050781 16.738281 51.808594 16.425781 51.671875 17.363281 C 51.535156 18.300781 51.515625 19.53125 51.242188 19.648438 C 50.96875 19.765625 51.261719 16.972656 48.996094 17.402344 C 46.730469 17.832031 47.179688 18.75 47.746094 18.964844 C 48.3125 19.179688 49.132812 18.632812 49.816406 19.433594 C 50.5 20.234375 52.507812 20.664062 53.113281 19.882812 Z M 53.113281 19.882812 " fill-opacity="1" fill-rule="nonzero"/><path fill="#ffffff" d="M 102.089844 20.019531 L 103.4375 21.269531 C 103.4375 21.269531 104.335938 20.117188 107.402344 20.234375 C 110.464844 20.351562 108.789062 16.953125 106.972656 16.914062 C 105.15625 16.875 103.398438 16.5625 103.535156 17.5 C 103.671875 18.4375 103.691406 19.667969 103.964844 19.785156 C 104.238281 19.902344 103.945312 17.109375 106.210938 17.539062 C 108.476562 17.96875 108.027344 18.886719 107.460938 19.101562 C 106.894531 19.316406 106.074219 18.769531 105.390625 19.570312 C 104.707031 20.371094 102.695312 20.800781 102.089844 20.019531 Z M 102.089844 20.019531 " fill-opacity="1" fill-rule="nonzero"/><g clip-path="url(#aa4d90fe6a)"><path fill="#ffffff" d="M 80.117188 20.214844 C 72.53125 20.238281 64.234375 21.070312 55.078125 23.84375 L 55.09375 23.839844 C 69.171875 20.46875 85.445312 20.539062 97.128906 21.382812 C 97.089844 21.386719 97.070312 21.386719 97.03125 21.386719 C 95.464844 21.46875 94.515625 21.699219 92.433594 21.882812 C 90.351562 22.070312 88.257812 22.308594 86.644531 22.597656 C 85.839844 22.742188 85.15625 22.902344 84.648438 23.074219 C 84.394531 23.160156 84.183594 23.253906 84.023438 23.351562 C 83.863281 23.449219 83.746094 23.554688 83.699219 23.691406 C 83.648438 23.832031 83.710938 23.984375 83.832031 24.09375 C 98.640625 33.1875 108.738281 15.941406 111.175781 27.640625 C 111.289062 27.632812 111.402344 27.625 111.511719 27.621094 C 111.015625 24.113281 109.207031 23.246094 108.496094 22.066406 C 108.277344 21.699219 107.984375 21.527344 107.683594 21.5 C 107.382812 21.472656 107.085938 21.578125 106.824219 21.722656 C 104.886719 23.175781 102.527344 24.085938 100.269531 24.511719 C 97.917969 24.933594 95.261719 25.105469 92.777344 25.105469 C 80.832031 22.953125 94.890625 21.996094 100.886719 21.417969 C 94.574219 20.96875 87.699219 20.1875 80.117188 20.214844 Z M 80.117188 20.214844 " fill-opacity="1" fill-rule="nonzero"/></g></svg>